<svg width="24" height="28" viewBox="0 0 24 28" fill="none" xmlns="http://www.w3.org/2000/svg">
<path d="M12 22.4842C12.2373 22.4842 12.4693 22.4131 12.6667 22.2799C12.864 22.1467 13.0178 21.9574 13.1087 21.7359C13.1995 21.5144 13.2232 21.2707 13.1769 21.0356C13.1306 20.8005 13.0164 20.5845 12.8485 20.415C12.6807 20.2455 12.4669 20.13 12.2341 20.0832C12.0013 20.0365 11.7601 20.0605 11.5408 20.1522C11.3215 20.244 11.1341 20.3993 11.0022 20.5987C10.8704 20.798 10.8 21.0323 10.8 21.2721C10.8 21.5936 10.9264 21.9019 11.1515 22.1292C11.3765 22.3565 11.6817 22.4842 12 22.4842ZM18 22.4842C18.2373 22.4842 18.4693 22.4131 18.6667 22.2799C18.864 22.1467 19.0178 21.9574 19.1087 21.7359C19.1995 21.5144 19.2232 21.2707 19.1769 21.0356C19.1306 20.8005 19.0164 20.5845 18.8485 20.415C18.6807 20.2455 18.4669 20.13 18.2341 20.0832C18.0013 20.0365 17.7601 20.0605 17.5408 20.1522C17.3215 20.244 17.1341 20.3993 17.0022 20.5987C16.8704 20.798 16.8 21.0323 16.8 21.2721C16.8 21.5936 16.9264 21.9019 17.1515 22.1292C17.3765 22.3565 17.6817 22.4842 18 22.4842ZM18 17.6357C18.2373 17.6357 18.4693 17.5646 18.6667 17.4314C18.864 17.2982 19.0178 17.1089 19.1087 16.8875C19.1995 16.666 19.2232 16.4222 19.1769 16.1871C19.1306 15.952 19.0164 15.736 18.8485 15.5665C18.6807 15.397 18.4669 15.2815 18.2341 15.2348C18.0013 15.188 17.7601 15.212 17.5408 15.3037C17.3215 15.3955 17.1341 15.5508 17.0022 15.7502C16.8704 15.9495 16.8 16.1839 16.8 16.4236C16.8 16.7451 16.9264 17.0534 17.1515 17.2807C17.3765 17.508 17.6817 17.6357 18 17.6357ZM12 17.6357C12.2373 17.6357 12.4693 17.5646 12.6667 17.4314C12.864 17.2982 13.0178 17.1089 13.1087 16.8875C13.1995 16.666 13.2232 16.4222 13.1769 16.1871C13.1306 15.952 13.0164 15.736 12.8485 15.5665C12.6807 15.397 12.4669 15.2815 12.2341 15.2348C12.0013 15.188 11.7601 15.212 11.5408 15.3037C11.3215 15.3955 11.1341 15.5508 11.0022 15.7502C10.8704 15.9495 10.8 16.1839 10.8 16.4236C10.8 16.7451 10.9264 17.0534 11.1515 17.2807C11.3765 17.508 11.6817 17.6357 12 17.6357ZM20.4 3.09026H19.2V1.87814C19.2 1.55666 19.0736 1.24835 18.8485 1.02104C18.6235 0.793721 18.3183 0.666016 18 0.666016C17.6817 0.666016 17.3765 0.793721 17.1515 1.02104C16.9264 1.24835 16.8 1.55666 16.8 1.87814V3.09026H7.2V1.87814C7.2 1.55666 7.07357 1.24835 6.84853 1.02104C6.62348 0.793721 6.31826 0.666016 6 0.666016C5.68174 0.666016 5.37652 0.793721 5.15147 1.02104C4.92643 1.24835 4.8 1.55666 4.8 1.87814V3.09026H3.6C2.64522 3.09026 1.72955 3.47337 1.05442 4.15532C0.379285 4.83728 0 5.7622 0 6.72662V23.6963C0 24.6607 0.379285 25.5857 1.05442 26.2676C1.72955 26.9496 2.64522 27.3327 3.6 27.3327H20.4C21.3548 27.3327 22.2705 26.9496 22.9456 26.2676C23.6207 25.5857 24 24.6607 24 23.6963V6.72662C24 5.7622 23.6207 4.83728 22.9456 4.15532C22.2705 3.47337 21.3548 3.09026 20.4 3.09026ZM21.6 23.6963C21.6 24.0178 21.4736 24.3261 21.2485 24.5534C21.0235 24.7807 20.7183 24.9084 20.4 24.9084H3.6C3.28174 24.9084 2.97652 24.7807 2.75147 24.5534C2.52643 24.3261 2.4 24.0178 2.4 23.6963V12.7872H21.6V23.6963ZM21.6 10.363H2.4V6.72662C2.4 6.40515 2.52643 6.09684 2.75147 5.86952C2.97652 5.64221 3.28174 5.5145 3.6 5.5145H4.8V6.72662C4.8 7.0481 4.92643 7.3564 5.15147 7.58372C5.37652 7.81104 5.68174 7.93874 6 7.93874C6.31826 7.93874 6.62348 7.81104 6.84853 7.58372C7.07357 7.3564 7.2 7.0481 7.2 6.72662V5.5145H16.8V6.72662C16.8 7.0481 16.9264 7.3564 17.1515 7.58372C17.3765 7.81104 17.6817 7.93874 18 7.93874C18.3183 7.93874 18.6235 7.81104 18.8485 7.58372C19.0736 7.3564 19.2 7.0481 19.2 6.72662V5.5145H20.4C20.7183 5.5145 21.0235 5.64221 21.2485 5.86952C21.4736 6.09684 21.6 6.40515 21.6 6.72662V10.363ZM6 17.6357C6.23734 17.6357 6.46935 17.5646 6.66668 17.4314C6.86402 17.2982 7.01783 17.1089 7.10866 16.8875C7.19948 16.666 7.22325 16.4222 7.17694 16.1871C7.13064 15.952 7.01635 15.736 6.84853 15.5665C6.68071 15.397 6.46689 15.2815 6.23411 15.2348C6.00133 15.188 5.76005 15.212 5.54078 15.3037C5.32151 15.3955 5.13409 15.5508 5.00224 15.7502C4.87038 15.9495 4.8 16.1839 4.8 16.4236C4.8 16.7451 4.92643 17.0534 5.15147 17.2807C5.37652 17.508 5.68174 17.6357 6 17.6357ZM6 22.4842C6.23734 22.4842 6.46935 22.4131 6.66668 22.2799C6.86402 22.1467 7.01783 21.9574 7.10866 21.7359C7.19948 21.5144 7.22325 21.2707 7.17694 21.0356C7.13064 20.8005 7.01635 20.5845 6.84853 20.415C6.68071 20.2455 6.46689 20.13 6.23411 20.0832C6.00133 20.0365 5.76005 20.0605 5.54078 20.1522C5.32151 20.244 5.13409 20.3993 5.00224 20.5987C4.87038 20.798 4.8 21.0323 4.8 21.2721C4.8 21.5936 4.92643 21.9019 5.15147 22.1292C5.37652 22.3565 5.68174 22.4842 6 22.4842Z" fill="white"/>
</svg>
