<svg width="26" height="23" viewBox="0 0 26 23" fill="none" xmlns="http://www.w3.org/2000/svg">
<path fill-rule="evenodd" clip-rule="evenodd" d="M7.07846 3.23904C8.64519 1.59423 10.7748 0.666016 13 0.666016C15.2252 0.666016 17.3548 1.59423 18.9215 3.23904C20.4876 4.8831 21.3636 7.10827 21.3636 9.42391C21.3636 13.7159 22.2383 16.3934 23.0528 17.9611C23.4615 18.7476 23.8605 19.2657 24.1402 19.5756C24.2803 19.7308 24.3911 19.8347 24.4593 19.8943C24.4934 19.9241 24.5168 19.9429 24.5279 19.9516C24.5306 19.9537 24.5326 19.9552 24.5338 19.9561C24.9218 20.235 25.0912 20.7403 24.9516 21.2068C24.8108 21.6779 24.3879 21.9993 23.909 21.9993H2.09098C1.61211 21.9993 1.18922 21.6779 1.04835 21.2068C0.908834 20.7403 1.07825 20.235 1.4662 19.9561C1.46742 19.9552 1.46939 19.9537 1.4721 19.9516C1.48319 19.9429 1.50662 19.9241 1.54071 19.8943C1.60886 19.8347 1.71974 19.7308 1.85984 19.5756C2.13948 19.2657 2.53854 18.7476 2.94716 17.9611C3.7617 16.3934 4.63642 13.7159 4.63642 9.42391C4.63642 7.10827 5.51244 4.8831 7.07846 3.23904ZM4.45656 19.7537H21.5434C21.4062 19.5304 21.2671 19.2862 21.1289 19.0201C20.1252 17.0884 19.1818 14.0395 19.1818 9.42391C19.1818 7.68965 18.5253 6.03079 17.3636 4.81113C16.2025 3.59223 14.6325 2.91163 13 2.91163C11.3675 2.91163 9.79747 3.59223 8.63642 4.81113C7.47466 6.03079 6.81822 7.68965 6.81822 9.42391C6.81822 14.0395 5.87478 17.0884 4.87114 19.0201C4.73285 19.2862 4.59384 19.5304 4.45656 19.7537Z" fill="white" stroke="white" stroke-width="0.25" stroke-linecap="round" stroke-linejoin="round"/>
</svg>
