<svg width="28" height="28" viewBox="0 0 28 28" fill="none" xmlns="http://www.w3.org/2000/svg">
<path d="M19.5868 4.69408C19.927 4.87706 20.3298 4.92516 20.7074 4.82787C21.0849 4.73058 21.4065 4.49581 21.602 4.17479C21.7637 3.90441 22.0157 3.69253 22.3183 3.57237C22.6208 3.45222 22.957 3.43058 23.2739 3.51085C23.5909 3.59112 23.8708 3.76877 24.0697 4.01593C24.2686 4.26309 24.3752 4.56578 24.3729 4.87654C24.3729 5.24877 24.2168 5.60576 23.9389 5.86897C23.661 6.13218 23.2841 6.28005 22.8911 6.28005C22.4981 6.28005 22.1213 6.42792 21.8434 6.69113C21.5655 6.95434 21.4094 7.31133 21.4094 7.68356C21.4094 8.05579 21.5655 8.41278 21.8434 8.67599C22.1213 8.9392 22.4981 9.08707 22.8911 9.08707C23.6713 9.08659 24.4377 8.89164 25.1131 8.52178C25.7886 8.15193 26.3494 7.62021 26.7392 6.98005C27.1289 6.33989 27.334 5.61384 27.3337 4.87485C27.3333 4.13587 27.1277 3.40997 26.7374 2.77011C26.3471 2.13025 25.7858 1.59895 25.1101 1.22961C24.4343 0.860273 23.6678 0.665897 22.8876 0.666016C22.1074 0.666134 21.3409 0.860743 20.6653 1.23029C19.9897 1.59983 19.4286 2.1313 19.0385 2.77128C18.9405 2.93147 18.877 3.10843 18.8515 3.29198C18.826 3.47553 18.8392 3.66203 18.8901 3.84076C18.9411 4.01948 19.0289 4.18689 19.1484 4.33334C19.268 4.47979 19.417 4.60239 19.5868 4.69408ZM25.9584 14.7011C25.5695 14.6533 25.1764 14.7535 24.8653 14.9797C24.5542 15.206 24.3505 15.5399 24.2988 15.9081C23.9879 18.2873 22.7692 20.4767 20.8724 22.0639C18.9756 23.6511 16.5315 24.5267 14.0004 24.5257H5.71721L6.68037 23.6134C6.95635 23.3504 7.11126 22.9947 7.11126 22.6239C7.11126 22.2531 6.95635 21.8974 6.68037 21.6344C5.23555 20.2606 4.25229 18.5124 3.85444 16.6103C3.45659 14.7081 3.66195 12.7369 4.44464 10.9451C5.22734 9.15323 6.55237 7.62085 8.25283 6.54095C9.95328 5.46105 11.9531 4.88193 14.0004 4.87654C14.3934 4.87654 14.7703 4.72867 15.0482 4.46546C15.3261 4.20225 15.4822 3.84527 15.4822 3.47303C15.4822 3.1008 15.3261 2.74381 15.0482 2.4806C14.7703 2.21739 14.3934 2.06952 14.0004 2.06952C11.495 2.07942 9.0433 2.75758 6.92604 4.02629C4.80879 5.295 3.11168 7.10296 2.02913 9.24303C0.946579 11.3831 0.522385 13.7687 0.805142 16.1266C1.0879 18.4845 2.06617 20.7192 3.62788 22.5748L1.09402 24.9327C0.888414 25.1301 0.749131 25.3807 0.693751 25.6529C0.63837 25.9252 0.669373 26.2069 0.782848 26.4625C0.894012 26.7188 1.08279 26.9382 1.32539 27.0931C1.56799 27.2479 1.85355 27.3313 2.14609 27.3327H14.0004C17.2477 27.3331 20.3835 26.2113 22.8197 24.1777C25.2559 22.1441 26.8251 19.3384 27.2328 16.2871C27.2599 16.1036 27.2484 15.9168 27.1989 15.7375C27.1494 15.5583 27.0629 15.3901 26.9444 15.2426C26.826 15.0952 26.6778 14.9714 26.5086 14.8785C26.3394 14.7855 26.1524 14.7253 25.9584 14.7011ZM23.4542 10.5888C23.1845 10.4758 22.8852 10.4416 22.5948 10.4906L22.3281 10.5748L22.0613 10.7011L21.8391 10.8836C21.7058 11.0129 21.6001 11.1654 21.5279 11.3327C21.4403 11.5077 21.3996 11.7006 21.4094 11.8941C21.405 12.0813 21.4403 12.2674 21.5131 12.4415C21.5897 12.6099 21.7005 12.7625 21.8391 12.8906C21.9775 13.0207 22.1417 13.1236 22.3223 13.1934C22.5028 13.2633 22.6961 13.2987 22.8911 13.2976C23.2841 13.2976 23.661 13.1497 23.9389 12.8865C24.2168 12.6233 24.3729 12.2663 24.3729 11.8941C24.3779 11.71 24.3373 11.5273 24.2544 11.3608C24.0952 11.0235 23.8103 10.7537 23.4542 10.6029V10.5888Z" fill="white"/>
</svg>
